<?xml version="1.0" encoding="UTF-8" standalone="no"?>
<!DOCTYPE svg PUBLIC "-//W3C//DTD SVG 1.1//EN"
 "http://www.w3.org/Graphics/SVG/1.1/DTD/svg11.dtd">
<!-- Generated by graphviz version 6.0.1 (20220911.2005)
 -->
<!-- Pages: 1 -->
<svg width="881pt" height="252pt"
 viewBox="0.00 0.00 881.00 251.91" xmlns="http://www.w3.org/2000/svg" xmlns:xlink="http://www.w3.org/1999/xlink">
<g id="graph0" class="graph" transform="scale(1 1) rotate(0) translate(4 247.91)">
<polygon fill="white" stroke="none" points="-4,4 -4,-247.91 877,-247.91 877,4 -4,4"/>
<g id="clust1" class="cluster">
<title>cluster829</title>
<path fill="none" stroke="black" d="M20,-8C20,-8 227,-8 227,-8 233,-8 239,-14 239,-20 239,-20 239,-212.93 239,-212.93 239,-218.93 233,-224.93 227,-224.93 227,-224.93 20,-224.93 20,-224.93 14,-224.93 8,-218.93 8,-212.93 8,-212.93 8,-20 8,-20 8,-14 14,-8 20,-8"/>
<text text-anchor="middle" x="217" y="-15.8" font-family="Times,serif" font-size="14.00">829</text>
</g>
<g id="clust2" class="cluster">
<title>cluster2</title>
<path fill="none" stroke="black" d="M259,-121.95C259,-121.95 381,-121.95 381,-121.95 387,-121.95 393,-127.95 393,-133.95 393,-133.95 393,-223.91 393,-223.91 393,-229.91 387,-235.91 381,-235.91 381,-235.91 259,-235.91 259,-235.91 253,-235.91 247,-229.91 247,-223.91 247,-223.91 247,-133.95 247,-133.95 247,-127.95 253,-121.95 259,-121.95"/>
<text text-anchor="middle" x="380" y="-129.75" font-family="Times,serif" font-size="14.00">2</text>
</g>
<g id="clust3" class="cluster">
<title>cluster3</title>
<path fill="none" stroke="black" d="M731,-121.95C731,-121.95 853,-121.95 853,-121.95 859,-121.95 865,-127.95 865,-133.95 865,-133.95 865,-223.91 865,-223.91 865,-229.91 859,-235.91 853,-235.91 853,-235.91 731,-235.91 731,-235.91 725,-235.91 719,-229.91 719,-223.91 719,-223.91 719,-133.95 719,-133.95 719,-127.95 725,-121.95 731,-121.95"/>
<text text-anchor="middle" x="852" y="-129.75" font-family="Times,serif" font-size="14.00">3</text>
</g>
<!-- O -->
<g id="node1" class="node">
<title>O</title>
<ellipse fill="lightgrey" stroke="black" cx="182" cy="-76.48" rx="49.49" ry="37.45"/>
<text text-anchor="middle" x="182" y="-87.78" font-family="Times,serif" font-size="14.00">O</text>
<text text-anchor="middle" x="182" y="-72.78" font-family="Times,serif" font-size="14.00">~</text>
<text text-anchor="middle" x="182" y="-57.78" font-family="Times,serif" font-size="14.00">Normal</text>
</g>
<!-- W -->
<g id="node2" class="node">
<title>W</title>
<path fill="lightgrey" stroke="black" d="M166,-216.93C166,-216.93 80,-216.93 80,-216.93 74,-216.93 68,-210.93 68,-204.93 68,-204.93 68,-175.93 68,-175.93 68,-169.93 74,-163.93 80,-163.93 80,-163.93 166,-163.93 166,-163.93 172,-163.93 178,-169.93 178,-175.93 178,-175.93 178,-204.93 178,-204.93 178,-210.93 172,-216.93 166,-216.93"/>
<text text-anchor="middle" x="123" y="-201.73" font-family="Times,serif" font-size="14.00">W</text>
<text text-anchor="middle" x="123" y="-186.73" font-family="Times,serif" font-size="14.00">~</text>
<text text-anchor="middle" x="123" y="-171.73" font-family="Times,serif" font-size="14.00">MutableData</text>
</g>
<!-- W&#45;&gt;O -->
<g id="edge6" class="edge">
<title>W&#45;&gt;O</title>
<path fill="none" stroke="black" d="M136.54,-163.75C143.3,-150.92 151.66,-135.05 159.36,-120.43"/>
<polygon fill="black" stroke="black" points="162.49,-122.01 164.05,-111.53 156.29,-118.75 162.49,-122.01"/>
</g>
<!-- P -->
<g id="node3" class="node">
<title>P</title>
<ellipse fill="lightgrey" stroke="black" cx="65" cy="-76.48" rx="49.49" ry="37.45"/>
<text text-anchor="middle" x="65" y="-87.78" font-family="Times,serif" font-size="14.00">P</text>
<text text-anchor="middle" x="65" y="-72.78" font-family="Times,serif" font-size="14.00">~</text>
<text text-anchor="middle" x="65" y="-57.78" font-family="Times,serif" font-size="14.00">Normal</text>
</g>
<!-- W&#45;&gt;P -->
<g id="edge1" class="edge">
<title>W&#45;&gt;P</title>
<path fill="none" stroke="black" d="M109.69,-163.75C103.05,-150.92 94.83,-135.05 87.25,-120.43"/>
<polygon fill="black" stroke="black" points="90.35,-118.8 82.64,-111.53 84.14,-122.02 90.35,-118.8"/>
</g>
<!-- β_P -->
<g id="node4" class="node">
<title>β_P</title>
<ellipse fill="none" stroke="black" cx="320" cy="-190.43" rx="65.11" ry="37.45"/>
<text text-anchor="middle" x="320" y="-201.73" font-family="Times,serif" font-size="14.00">β_P</text>
<text text-anchor="middle" x="320" y="-186.73" font-family="Times,serif" font-size="14.00">~</text>
<text text-anchor="middle" x="320" y="-171.73" font-family="Times,serif" font-size="14.00">MvNormal</text>
</g>
<!-- β_P&#45;&gt;O -->
<g id="edge7" class="edge">
<title>β_P&#45;&gt;O</title>
<path fill="none" stroke="black" d="M285.68,-158.19C272.55,-146.55 257.3,-133.39 243,-121.95 237.57,-117.61 231.77,-113.15 225.98,-108.82"/>
<polygon fill="black" stroke="black" points="227.68,-105.72 217.56,-102.58 223.52,-111.35 227.68,-105.72"/>
</g>
<!-- β_P&#45;&gt;P -->
<g id="edge3" class="edge">
<title>β_P&#45;&gt;P</title>
<path fill="none" stroke="black" d="M291.77,-156.64C278.42,-143.45 261.39,-129.58 243,-121.95 194.04,-101.64 174.47,-130.15 124,-113.95 119.04,-112.36 114.07,-110.27 109.24,-107.88"/>
<polygon fill="black" stroke="black" points="110.61,-104.65 100.15,-103 107.3,-110.82 110.61,-104.65"/>
</g>
<!-- σ_O -->
<g id="node5" class="node">
<title>σ_O</title>
<ellipse fill="none" stroke="black" cx="637" cy="-190.43" rx="72.25" ry="37.45"/>
<text text-anchor="middle" x="637" y="-201.73" font-family="Times,serif" font-size="14.00">σ_O</text>
<text text-anchor="middle" x="637" y="-186.73" font-family="Times,serif" font-size="14.00">~</text>
<text text-anchor="middle" x="637" y="-171.73" font-family="Times,serif" font-size="14.00">Exponential</text>
</g>
<!-- σ_O&#45;&gt;O -->
<g id="edge4" class="edge">
<title>σ_O&#45;&gt;O</title>
<path fill="none" stroke="black" d="M606.06,-156.39C592.05,-143.49 574.49,-129.91 556,-121.95 500.84,-98.21 332.31,-85.64 241.49,-80.44"/>
<polygon fill="black" stroke="black" points="241.52,-76.93 231.34,-79.87 241.13,-83.92 241.52,-76.93"/>
</g>
<!-- σ_P -->
<g id="node6" class="node">
<title>σ_P</title>
<ellipse fill="none" stroke="black" cx="475" cy="-190.43" rx="72.25" ry="37.45"/>
<text text-anchor="middle" x="475" y="-201.73" font-family="Times,serif" font-size="14.00">σ_P</text>
<text text-anchor="middle" x="475" y="-186.73" font-family="Times,serif" font-size="14.00">~</text>
<text text-anchor="middle" x="475" y="-171.73" font-family="Times,serif" font-size="14.00">Exponential</text>
</g>
<!-- σ_P&#45;&gt;P -->
<g id="edge2" class="edge">
<title>σ_P&#45;&gt;P</title>
<path fill="none" stroke="black" d="M446.1,-155.95C432.65,-142.81 415.52,-129.16 397,-121.95 368.72,-110.94 153.07,-122.67 124,-113.95 119.01,-112.46 114.02,-110.42 109.18,-108.08"/>
<polygon fill="black" stroke="black" points="110.55,-104.84 100.07,-103.24 107.26,-111.02 110.55,-104.84"/>
</g>
<!-- β_O -->
<g id="node7" class="node">
<title>β_O</title>
<ellipse fill="none" stroke="black" cx="792" cy="-190.43" rx="65.11" ry="37.45"/>
<text text-anchor="middle" x="792" y="-201.73" font-family="Times,serif" font-size="14.00">β_O</text>
<text text-anchor="middle" x="792" y="-186.73" font-family="Times,serif" font-size="14.00">~</text>
<text text-anchor="middle" x="792" y="-171.73" font-family="Times,serif" font-size="14.00">MvNormal</text>
</g>
<!-- β_O&#45;&gt;O -->
<g id="edge5" class="edge">
<title>β_O&#45;&gt;O</title>
<path fill="none" stroke="black" d="M764.35,-156.08C751.66,-143.13 735.53,-129.6 718,-121.95 633.89,-85.29 363.05,-78.71 241.73,-77.63"/>
<polygon fill="black" stroke="black" points="241.54,-74.13 231.52,-77.55 241.49,-81.12 241.54,-74.13"/>
</g>
</g>
</svg>
