<?xml version="1.0" encoding="UTF-8" standalone="no"?>
<!DOCTYPE svg PUBLIC "-//W3C//DTD SVG 1.1//EN"
 "http://www.w3.org/Graphics/SVG/1.1/DTD/svg11.dtd">
<!-- Generated by graphviz version 6.0.1 (20220911.2005)
 -->
<!-- Pages: 1 -->
<svg width="871pt" height="374pt"
 viewBox="0.00 0.00 871.12 373.86" xmlns="http://www.w3.org/2000/svg" xmlns:xlink="http://www.w3.org/1999/xlink">
<g id="graph0" class="graph" transform="scale(1 1) rotate(0) translate(4 369.86)">
<polygon fill="white" stroke="none" points="-4,4 -4,-369.86 867.12,-369.86 867.12,4 -4,4"/>
<g id="clust1" class="cluster">
<title>cluster829</title>
<path fill="none" stroke="black" d="M20,-8C20,-8 227,-8 227,-8 233,-8 239,-14 239,-20 239,-20 239,-212.93 239,-212.93 239,-218.93 233,-224.93 227,-224.93 227,-224.93 20,-224.93 20,-224.93 14,-224.93 8,-218.93 8,-212.93 8,-212.93 8,-20 8,-20 8,-14 14,-8 20,-8"/>
<text text-anchor="middle" x="217" y="-15.8" font-family="Times,serif" font-size="14.00">829</text>
</g>
<g id="clust2" class="cluster">
<title>cluster2</title>
<path fill="none" stroke="black" d="M259,-243.91C259,-243.91 381,-243.91 381,-243.91 387,-243.91 393,-249.91 393,-255.91 393,-255.91 393,-345.86 393,-345.86 393,-351.86 387,-357.86 381,-357.86 381,-357.86 259,-357.86 259,-357.86 253,-357.86 247,-351.86 247,-345.86 247,-345.86 247,-255.91 247,-255.91 247,-249.91 253,-243.91 259,-243.91"/>
<text text-anchor="middle" x="380" y="-251.71" font-family="Times,serif" font-size="14.00">2</text>
</g>
<g id="clust3" class="cluster">
<title>cluster3</title>
<path fill="none" stroke="black" d="M413,-243.91C413,-243.91 535,-243.91 535,-243.91 541,-243.91 547,-249.91 547,-255.91 547,-255.91 547,-345.86 547,-345.86 547,-351.86 541,-357.86 535,-357.86 535,-357.86 413,-357.86 413,-357.86 407,-357.86 401,-351.86 401,-345.86 401,-345.86 401,-255.91 401,-255.91 401,-249.91 407,-243.91 413,-243.91"/>
<text text-anchor="middle" x="534" y="-251.71" font-family="Times,serif" font-size="14.00">3</text>
</g>
<g id="clust4" class="cluster">
<title>cluster12 x 2</title>
<path fill="none" stroke="black" d="M259,-121.95C259,-121.95 381,-121.95 381,-121.95 387,-121.95 393,-127.95 393,-133.95 393,-133.95 393,-223.91 393,-223.91 393,-229.91 387,-235.91 381,-235.91 381,-235.91 259,-235.91 259,-235.91 253,-235.91 247,-229.91 247,-223.91 247,-223.91 247,-133.95 247,-133.95 247,-127.95 253,-121.95 259,-121.95"/>
<text text-anchor="middle" x="362.5" y="-129.75" font-family="Times,serif" font-size="14.00">12 x 2</text>
</g>
<g id="clust5" class="cluster">
<title>cluster12 x 3</title>
<path fill="none" stroke="black" d="M413,-121.95C413,-121.95 535,-121.95 535,-121.95 541,-121.95 547,-127.95 547,-133.95 547,-133.95 547,-223.91 547,-223.91 547,-229.91 541,-235.91 535,-235.91 535,-235.91 413,-235.91 413,-235.91 407,-235.91 401,-229.91 401,-223.91 401,-223.91 401,-133.95 401,-133.95 401,-127.95 407,-121.95 413,-121.95"/>
<text text-anchor="middle" x="516.5" y="-129.75" font-family="Times,serif" font-size="14.00">12 x 3</text>
</g>
<!-- O -->
<g id="node1" class="node">
<title>O</title>
<ellipse fill="lightgrey" stroke="black" cx="182" cy="-76.48" rx="49.49" ry="37.45"/>
<text text-anchor="middle" x="182" y="-87.78" font-family="Times,serif" font-size="14.00">O</text>
<text text-anchor="middle" x="182" y="-72.78" font-family="Times,serif" font-size="14.00">~</text>
<text text-anchor="middle" x="182" y="-57.78" font-family="Times,serif" font-size="14.00">Normal</text>
</g>
<!-- W -->
<g id="node2" class="node">
<title>W</title>
<path fill="lightgrey" stroke="black" d="M166,-216.93C166,-216.93 80,-216.93 80,-216.93 74,-216.93 68,-210.93 68,-204.93 68,-204.93 68,-175.93 68,-175.93 68,-169.93 74,-163.93 80,-163.93 80,-163.93 166,-163.93 166,-163.93 172,-163.93 178,-169.93 178,-175.93 178,-175.93 178,-204.93 178,-204.93 178,-210.93 172,-216.93 166,-216.93"/>
<text text-anchor="middle" x="123" y="-201.73" font-family="Times,serif" font-size="14.00">W</text>
<text text-anchor="middle" x="123" y="-186.73" font-family="Times,serif" font-size="14.00">~</text>
<text text-anchor="middle" x="123" y="-171.73" font-family="Times,serif" font-size="14.00">MutableData</text>
</g>
<!-- W&#45;&gt;O -->
<g id="edge8" class="edge">
<title>W&#45;&gt;O</title>
<path fill="none" stroke="black" d="M136.54,-163.75C143.3,-150.92 151.66,-135.05 159.36,-120.43"/>
<polygon fill="black" stroke="black" points="162.49,-122.01 164.05,-111.53 156.29,-118.75 162.49,-122.01"/>
</g>
<!-- P -->
<g id="node3" class="node">
<title>P</title>
<ellipse fill="lightgrey" stroke="black" cx="65" cy="-76.48" rx="49.49" ry="37.45"/>
<text text-anchor="middle" x="65" y="-87.78" font-family="Times,serif" font-size="14.00">P</text>
<text text-anchor="middle" x="65" y="-72.78" font-family="Times,serif" font-size="14.00">~</text>
<text text-anchor="middle" x="65" y="-57.78" font-family="Times,serif" font-size="14.00">Normal</text>
</g>
<!-- W&#45;&gt;P -->
<g id="edge3" class="edge">
<title>W&#45;&gt;P</title>
<path fill="none" stroke="black" d="M109.69,-163.75C103.05,-150.92 94.83,-135.05 87.25,-120.43"/>
<polygon fill="black" stroke="black" points="90.35,-118.8 82.64,-111.53 84.14,-122.02 90.35,-118.8"/>
</g>
<!-- θ_P -->
<g id="node4" class="node">
<title>θ_P</title>
<ellipse fill="none" stroke="black" cx="320" cy="-312.38" rx="65.11" ry="37.45"/>
<text text-anchor="middle" x="320" y="-323.68" font-family="Times,serif" font-size="14.00">θ_P</text>
<text text-anchor="middle" x="320" y="-308.68" font-family="Times,serif" font-size="14.00">~</text>
<text text-anchor="middle" x="320" y="-293.68" font-family="Times,serif" font-size="14.00">MvNormal</text>
</g>
<!-- β_P -->
<g id="node6" class="node">
<title>β_P</title>
<ellipse fill="none" stroke="black" cx="320" cy="-190.43" rx="65.11" ry="37.45"/>
<text text-anchor="middle" x="320" y="-201.73" font-family="Times,serif" font-size="14.00">β_P</text>
<text text-anchor="middle" x="320" y="-186.73" font-family="Times,serif" font-size="14.00">~</text>
<text text-anchor="middle" x="320" y="-171.73" font-family="Times,serif" font-size="14.00">MvNormal</text>
</g>
<!-- θ_P&#45;&gt;β_P -->
<g id="edge1" class="edge">
<title>θ_P&#45;&gt;β_P</title>
<path fill="none" stroke="black" d="M320,-274.74C320,-263.34 320,-250.6 320,-238.58"/>
<polygon fill="black" stroke="black" points="323.5,-238.26 320,-228.26 316.5,-238.26 323.5,-238.26"/>
</g>
<!-- θ_O -->
<g id="node5" class="node">
<title>θ_O</title>
<ellipse fill="none" stroke="black" cx="474" cy="-312.38" rx="65.11" ry="37.45"/>
<text text-anchor="middle" x="474" y="-323.68" font-family="Times,serif" font-size="14.00">θ_O</text>
<text text-anchor="middle" x="474" y="-308.68" font-family="Times,serif" font-size="14.00">~</text>
<text text-anchor="middle" x="474" y="-293.68" font-family="Times,serif" font-size="14.00">MvNormal</text>
</g>
<!-- β_O -->
<g id="node7" class="node">
<title>β_O</title>
<ellipse fill="none" stroke="black" cx="474" cy="-190.43" rx="65.11" ry="37.45"/>
<text text-anchor="middle" x="474" y="-201.73" font-family="Times,serif" font-size="14.00">β_O</text>
<text text-anchor="middle" x="474" y="-186.73" font-family="Times,serif" font-size="14.00">~</text>
<text text-anchor="middle" x="474" y="-171.73" font-family="Times,serif" font-size="14.00">MvNormal</text>
</g>
<!-- θ_O&#45;&gt;β_O -->
<g id="edge2" class="edge">
<title>θ_O&#45;&gt;β_O</title>
<path fill="none" stroke="black" d="M474,-274.74C474,-263.34 474,-250.6 474,-238.58"/>
<polygon fill="black" stroke="black" points="477.5,-238.26 474,-228.26 470.5,-238.26 477.5,-238.26"/>
</g>
<!-- β_P&#45;&gt;O -->
<g id="edge9" class="edge">
<title>β_P&#45;&gt;O</title>
<path fill="none" stroke="black" d="M285.68,-158.19C272.55,-146.55 257.3,-133.39 243,-121.95 237.57,-117.61 231.77,-113.15 225.98,-108.82"/>
<polygon fill="black" stroke="black" points="227.68,-105.72 217.56,-102.58 223.52,-111.35 227.68,-105.72"/>
</g>
<!-- β_P&#45;&gt;P -->
<g id="edge5" class="edge">
<title>β_P&#45;&gt;P</title>
<path fill="none" stroke="black" d="M291.77,-156.64C278.42,-143.45 261.39,-129.58 243,-121.95 194.04,-101.64 174.47,-130.15 124,-113.95 119.04,-112.36 114.07,-110.27 109.24,-107.88"/>
<polygon fill="black" stroke="black" points="110.61,-104.65 100.15,-103 107.3,-110.82 110.61,-104.65"/>
</g>
<!-- β_O&#45;&gt;O -->
<g id="edge7" class="edge">
<title>β_O&#45;&gt;O</title>
<path fill="none" stroke="black" d="M444.15,-156.77C430.88,-144.1 414.35,-130.59 397,-121.95 347.93,-97.53 286.15,-86.51 241.42,-81.55"/>
<polygon fill="black" stroke="black" points="241.6,-78.05 231.29,-80.49 240.88,-85.01 241.6,-78.05"/>
</g>
<!-- σ_O -->
<g id="node8" class="node">
<title>σ_O</title>
<ellipse fill="none" stroke="black" cx="791" cy="-190.43" rx="72.25" ry="37.45"/>
<text text-anchor="middle" x="791" y="-201.73" font-family="Times,serif" font-size="14.00">σ_O</text>
<text text-anchor="middle" x="791" y="-186.73" font-family="Times,serif" font-size="14.00">~</text>
<text text-anchor="middle" x="791" y="-171.73" font-family="Times,serif" font-size="14.00">Exponential</text>
</g>
<!-- σ_O&#45;&gt;O -->
<g id="edge6" class="edge">
<title>σ_O&#45;&gt;O</title>
<path fill="none" stroke="black" d="M760.57,-156.43C746.52,-143.37 728.8,-129.66 710,-121.95 626.58,-87.73 361.3,-79.84 241.6,-78.02"/>
<polygon fill="black" stroke="black" points="241.57,-74.52 231.52,-77.88 241.47,-81.52 241.57,-74.52"/>
</g>
<!-- σ_P -->
<g id="node9" class="node">
<title>σ_P</title>
<ellipse fill="none" stroke="black" cx="629" cy="-190.43" rx="72.25" ry="37.45"/>
<text text-anchor="middle" x="629" y="-201.73" font-family="Times,serif" font-size="14.00">σ_P</text>
<text text-anchor="middle" x="629" y="-186.73" font-family="Times,serif" font-size="14.00">~</text>
<text text-anchor="middle" x="629" y="-171.73" font-family="Times,serif" font-size="14.00">Exponential</text>
</g>
<!-- σ_P&#45;&gt;P -->
<g id="edge4" class="edge">
<title>σ_P&#45;&gt;P</title>
<path fill="none" stroke="black" d="M600.14,-155.86C586.69,-142.7 569.56,-129.07 551,-121.95 506.69,-104.97 169.52,-127.35 124,-113.95 119,-112.48 114.01,-110.47 109.16,-108.13"/>
<polygon fill="black" stroke="black" points="110.53,-104.9 100.05,-103.31 107.25,-111.08 110.53,-104.9"/>
</g>
</g>
</svg>
