<?xml version="1.0" encoding="UTF-8" standalone="no"?>
<!DOCTYPE svg PUBLIC "-//W3C//DTD SVG 1.1//EN"
 "http://www.w3.org/Graphics/SVG/1.1/DTD/svg11.dtd">
<!-- Generated by graphviz version 6.0.1 (20220911.2005)
 -->
<!-- Pages: 1 -->
<svg width="559pt" height="374pt"
 viewBox="0.00 0.00 558.72 373.86" xmlns="http://www.w3.org/2000/svg" xmlns:xlink="http://www.w3.org/1999/xlink">
<g id="graph0" class="graph" transform="scale(1 1) rotate(0) translate(4 369.86)">
<polygon fill="white" stroke="none" points="-4,4 -4,-369.86 554.72,-369.86 554.72,4 -4,4"/>
<g id="clust1" class="cluster">
<title>cluster540</title>
<path fill="none" stroke="black" d="M20,-8C20,-8 210,-8 210,-8 216,-8 222,-14 222,-20 222,-20 222,-212.93 222,-212.93 222,-218.93 216,-224.93 210,-224.93 210,-224.93 20,-224.93 20,-224.93 14,-224.93 8,-218.93 8,-212.93 8,-212.93 8,-20 8,-20 8,-14 14,-8 20,-8"/>
<text text-anchor="middle" x="203.5" y="-15.8" font-family="Times,serif" font-size="14.00">540</text>
</g>
<g id="clust2" class="cluster">
<title>cluster3</title>
<path fill="none" stroke="black" d="M255,-243.91C255,-243.91 331,-243.91 331,-243.91 337,-243.91 343,-249.91 343,-255.91 343,-255.91 343,-345.86 343,-345.86 343,-351.86 337,-357.86 331,-357.86 331,-357.86 255,-357.86 255,-357.86 249,-357.86 243,-351.86 243,-345.86 243,-345.86 243,-255.91 243,-255.91 243,-249.91 249,-243.91 255,-243.91"/>
<text text-anchor="middle" x="331.5" y="-251.71" font-family="Times,serif" font-size="14.00">3</text>
</g>
<g id="clust3" class="cluster">
<title>cluster4 x 3</title>
<path fill="none" stroke="black" d="M242,-121.95C242,-121.95 344,-121.95 344,-121.95 350,-121.95 356,-127.95 356,-133.95 356,-133.95 356,-223.91 356,-223.91 356,-229.91 350,-235.91 344,-235.91 344,-235.91 242,-235.91 242,-235.91 236,-235.91 230,-229.91 230,-223.91 230,-223.91 230,-133.95 230,-133.95 230,-127.95 236,-121.95 242,-121.95"/>
<text text-anchor="middle" x="334" y="-129.75" font-family="Times,serif" font-size="14.00">4 x 3</text>
</g>
<!-- C -->
<g id="node1" class="node">
<title>C</title>
<path fill="lightgrey" stroke="black" d="M202,-216.93C202,-216.93 136,-216.93 136,-216.93 130,-216.93 124,-210.93 124,-204.93 124,-204.93 124,-175.93 124,-175.93 124,-169.93 130,-163.93 136,-163.93 136,-163.93 202,-163.93 202,-163.93 208,-163.93 214,-169.93 214,-175.93 214,-175.93 214,-204.93 214,-204.93 214,-210.93 208,-216.93 202,-216.93"/>
<text text-anchor="middle" x="169" y="-201.73" font-family="Times,serif" font-size="14.00">C</text>
<text text-anchor="middle" x="169" y="-186.73" font-family="Times,serif" font-size="14.00">~</text>
<text text-anchor="middle" x="169" y="-171.73" font-family="Times,serif" font-size="14.00">ConstantData</text>
</g>
<!-- O -->
<g id="node3" class="node">
<title>O</title>
<ellipse fill="lightgrey" stroke="black" cx="159" cy="-76.48" rx="55.31" ry="37.45"/>
<text text-anchor="middle" x="159" y="-87.78" font-family="Times,serif" font-size="14.00">O</text>
<text text-anchor="middle" x="159" y="-72.78" font-family="Times,serif" font-size="14.00">~</text>
<text text-anchor="middle" x="159" y="-57.78" font-family="Times,serif" font-size="14.00">MvNormal</text>
</g>
<!-- C&#45;&gt;O -->
<g id="edge3" class="edge">
<title>C&#45;&gt;O</title>
<path fill="none" stroke="black" d="M166.71,-163.75C165.66,-152.02 164.38,-137.75 163.18,-124.22"/>
<polygon fill="black" stroke="black" points="166.64,-123.72 162.27,-114.07 159.67,-124.35 166.64,-123.72"/>
</g>
<!-- W -->
<g id="node2" class="node">
<title>W</title>
<path fill="lightgrey" stroke="black" d="M94,-216.93C94,-216.93 28,-216.93 28,-216.93 22,-216.93 16,-210.93 16,-204.93 16,-204.93 16,-175.93 16,-175.93 16,-169.93 22,-163.93 28,-163.93 28,-163.93 94,-163.93 94,-163.93 100,-163.93 106,-169.93 106,-175.93 106,-175.93 106,-204.93 106,-204.93 106,-210.93 100,-216.93 94,-216.93"/>
<text text-anchor="middle" x="61" y="-201.73" font-family="Times,serif" font-size="14.00">W</text>
<text text-anchor="middle" x="61" y="-186.73" font-family="Times,serif" font-size="14.00">~</text>
<text text-anchor="middle" x="61" y="-171.73" font-family="Times,serif" font-size="14.00">ConstantData</text>
</g>
<!-- W&#45;&gt;O -->
<g id="edge6" class="edge">
<title>W&#45;&gt;O</title>
<path fill="none" stroke="black" d="M80.39,-163.92C90.41,-151.07 103.03,-135.4 115,-121.95 116.96,-119.75 119.01,-117.51 121.09,-115.27"/>
<polygon fill="black" stroke="black" points="123.93,-117.36 128.27,-107.69 118.85,-112.54 123.93,-117.36"/>
</g>
<!-- θ -->
<g id="node4" class="node">
<title>θ</title>
<ellipse fill="none" stroke="black" cx="293" cy="-312.38" rx="41.94" ry="37.45"/>
<text text-anchor="middle" x="293" y="-323.68" font-family="Times,serif" font-size="14.00">θ</text>
<text text-anchor="middle" x="293" y="-308.68" font-family="Times,serif" font-size="14.00">~</text>
<text text-anchor="middle" x="293" y="-293.68" font-family="Times,serif" font-size="14.00">Normal</text>
</g>
<!-- β -->
<g id="node5" class="node">
<title>β</title>
<ellipse fill="none" stroke="black" cx="293" cy="-190.43" rx="55.31" ry="37.45"/>
<text text-anchor="middle" x="293" y="-201.73" font-family="Times,serif" font-size="14.00">β</text>
<text text-anchor="middle" x="293" y="-186.73" font-family="Times,serif" font-size="14.00">~</text>
<text text-anchor="middle" x="293" y="-171.73" font-family="Times,serif" font-size="14.00">MvNormal</text>
</g>
<!-- θ&#45;&gt;β -->
<g id="edge1" class="edge">
<title>θ&#45;&gt;β</title>
<path fill="none" stroke="black" d="M293,-274.74C293,-263.34 293,-250.6 293,-238.58"/>
<polygon fill="black" stroke="black" points="296.5,-238.26 293,-228.26 289.5,-238.26 296.5,-238.26"/>
</g>
<!-- β&#45;&gt;O -->
<g id="edge5" class="edge">
<title>β&#45;&gt;O</title>
<path fill="none" stroke="black" d="M264.55,-158.18C253.07,-146.28 239.4,-132.95 226,-121.95 220.29,-117.26 214.07,-112.61 207.81,-108.18"/>
<polygon fill="black" stroke="black" points="209.5,-105.09 199.28,-102.3 205.52,-110.86 209.5,-105.09"/>
</g>
<!-- η² -->
<g id="node6" class="node">
<title>η²</title>
<ellipse fill="none" stroke="black" cx="408" cy="-190.43" rx="41.94" ry="37.45"/>
<text text-anchor="middle" x="408" y="-201.73" font-family="Times,serif" font-size="14.00">η²</text>
<text text-anchor="middle" x="408" y="-186.73" font-family="Times,serif" font-size="14.00">~</text>
<text text-anchor="middle" x="408" y="-171.73" font-family="Times,serif" font-size="14.00">Normal</text>
</g>
<!-- η²&#45;&gt;O -->
<g id="edge4" class="edge">
<title>η²&#45;&gt;O</title>
<path fill="none" stroke="black" d="M391.18,-156.1C383.31,-143.63 372.82,-130.45 360,-121.95 319.81,-95.33 266.18,-84.41 224.42,-80.04"/>
<polygon fill="black" stroke="black" points="224.63,-76.55 214.35,-79.09 223.97,-83.52 224.63,-76.55"/>
</g>
<!-- ρ² -->
<g id="node7" class="node">
<title>ρ²</title>
<ellipse fill="none" stroke="black" cx="509" cy="-190.43" rx="41.94" ry="37.45"/>
<text text-anchor="middle" x="509" y="-201.73" font-family="Times,serif" font-size="14.00">ρ²</text>
<text text-anchor="middle" x="509" y="-186.73" font-family="Times,serif" font-size="14.00">~</text>
<text text-anchor="middle" x="509" y="-171.73" font-family="Times,serif" font-size="14.00">Normal</text>
</g>
<!-- ρ²&#45;&gt;O -->
<g id="edge2" class="edge">
<title>ρ²&#45;&gt;O</title>
<path fill="none" stroke="black" d="M491.73,-155.97C483.51,-143.33 472.51,-130.05 459,-121.95 420.56,-98.91 300.58,-86.84 224.5,-81.35"/>
<polygon fill="black" stroke="black" points="224.29,-77.82 214.07,-80.61 223.8,-84.81 224.29,-77.82"/>
</g>
</g>
</svg>
