<?xml version="1.0" encoding="UTF-8" standalone="no"?>
<!DOCTYPE svg PUBLIC "-//W3C//DTD SVG 1.1//EN"
 "http://www.w3.org/Graphics/SVG/1.1/DTD/svg11.dtd">
<!-- Generated by graphviz version 6.0.1 (20220911.2005)
 -->
<!-- Pages: 1 -->
<svg width="614pt" height="374pt"
 viewBox="0.00 0.00 613.98 373.86" xmlns="http://www.w3.org/2000/svg" xmlns:xlink="http://www.w3.org/1999/xlink">
<g id="graph0" class="graph" transform="scale(1 1) rotate(0) translate(4 369.86)">
<polygon fill="white" stroke="none" points="-4,4 -4,-369.86 609.98,-369.86 609.98,4 -4,4"/>
<g id="clust1" class="cluster">
<title>cluster550</title>
<path fill="none" stroke="black" d="M154,-8C154,-8 468,-8 468,-8 474,-8 480,-14 480,-20 480,-20 480,-223.91 480,-223.91 480,-229.91 474,-235.91 468,-235.91 468,-235.91 154,-235.91 154,-235.91 148,-235.91 142,-229.91 142,-223.91 142,-223.91 142,-20 142,-20 142,-14 148,-8 154,-8"/>
<text text-anchor="middle" x="461.5" y="-15.8" font-family="Times,serif" font-size="14.00">550</text>
</g>
<g id="clust2" class="cluster">
<title>cluster3</title>
<path fill="none" stroke="black" d="M33,-243.91C33,-243.91 109,-243.91 109,-243.91 115,-243.91 121,-249.91 121,-255.91 121,-255.91 121,-345.86 121,-345.86 121,-351.86 115,-357.86 109,-357.86 109,-357.86 33,-357.86 33,-357.86 27,-357.86 21,-351.86 21,-345.86 21,-345.86 21,-255.91 21,-255.91 21,-249.91 27,-243.91 33,-243.91"/>
<text text-anchor="middle" x="109.5" y="-251.71" font-family="Times,serif" font-size="14.00">3</text>
</g>
<g id="clust3" class="cluster">
<title>cluster4 x 3</title>
<path fill="none" stroke="black" d="M20,-121.95C20,-121.95 122,-121.95 122,-121.95 128,-121.95 134,-127.95 134,-133.95 134,-133.95 134,-223.91 134,-223.91 134,-229.91 128,-235.91 122,-235.91 122,-235.91 20,-235.91 20,-235.91 14,-235.91 8,-229.91 8,-223.91 8,-223.91 8,-133.95 8,-133.95 8,-127.95 14,-121.95 20,-121.95"/>
<text text-anchor="middle" x="112" y="-129.75" font-family="Times,serif" font-size="14.00">4 x 3</text>
</g>
<!-- γ -->
<g id="node1" class="node">
<title>γ</title>
<ellipse fill="none" stroke="black" cx="417" cy="-190.43" rx="55.31" ry="37.45"/>
<text text-anchor="middle" x="417" y="-201.73" font-family="Times,serif" font-size="14.00">γ</text>
<text text-anchor="middle" x="417" y="-186.73" font-family="Times,serif" font-size="14.00">~</text>
<text text-anchor="middle" x="417" y="-171.73" font-family="Times,serif" font-size="14.00">MvNormal</text>
</g>
<!-- O -->
<g id="node4" class="node">
<title>O</title>
<ellipse fill="lightgrey" stroke="black" cx="300" cy="-76.48" rx="41.94" ry="37.45"/>
<text text-anchor="middle" x="300" y="-87.78" font-family="Times,serif" font-size="14.00">O</text>
<text text-anchor="middle" x="300" y="-72.78" font-family="Times,serif" font-size="14.00">~</text>
<text text-anchor="middle" x="300" y="-57.78" font-family="Times,serif" font-size="14.00">Normal</text>
</g>
<!-- γ&#45;&gt;O -->
<g id="edge7" class="edge">
<title>γ&#45;&gt;O</title>
<path fill="none" stroke="black" d="M388.72,-158.15C377.84,-146.5 365.11,-133.35 353,-121.95 348.35,-117.58 343.35,-113.1 338.34,-108.76"/>
<polygon fill="black" stroke="black" points="340.38,-105.9 330.51,-102.07 335.84,-111.22 340.38,-105.9"/>
</g>
<!-- W -->
<g id="node2" class="node">
<title>W</title>
<path fill="lightgrey" stroke="black" d="M332,-216.93C332,-216.93 268,-216.93 268,-216.93 262,-216.93 256,-210.93 256,-204.93 256,-204.93 256,-175.93 256,-175.93 256,-169.93 262,-163.93 268,-163.93 268,-163.93 332,-163.93 332,-163.93 338,-163.93 344,-169.93 344,-175.93 344,-175.93 344,-204.93 344,-204.93 344,-210.93 338,-216.93 332,-216.93"/>
<text text-anchor="middle" x="300" y="-201.73" font-family="Times,serif" font-size="14.00">W</text>
<text text-anchor="middle" x="300" y="-186.73" font-family="Times,serif" font-size="14.00">~</text>
<text text-anchor="middle" x="300" y="-171.73" font-family="Times,serif" font-size="14.00">MutableData</text>
</g>
<!-- W&#45;&gt;O -->
<g id="edge5" class="edge">
<title>W&#45;&gt;O</title>
<path fill="none" stroke="black" d="M300,-163.75C300,-152.02 300,-137.75 300,-124.22"/>
<polygon fill="black" stroke="black" points="303.5,-124.07 300,-114.07 296.5,-124.07 303.5,-124.07"/>
</g>
<!-- C -->
<g id="node3" class="node">
<title>C</title>
<path fill="lightgrey" stroke="black" d="M226,-216.93C226,-216.93 162,-216.93 162,-216.93 156,-216.93 150,-210.93 150,-204.93 150,-204.93 150,-175.93 150,-175.93 150,-169.93 156,-163.93 162,-163.93 162,-163.93 226,-163.93 226,-163.93 232,-163.93 238,-169.93 238,-175.93 238,-175.93 238,-204.93 238,-204.93 238,-210.93 232,-216.93 226,-216.93"/>
<text text-anchor="middle" x="194" y="-201.73" font-family="Times,serif" font-size="14.00">C</text>
<text text-anchor="middle" x="194" y="-186.73" font-family="Times,serif" font-size="14.00">~</text>
<text text-anchor="middle" x="194" y="-171.73" font-family="Times,serif" font-size="14.00">MutableData</text>
</g>
<!-- C&#45;&gt;O -->
<g id="edge4" class="edge">
<title>C&#45;&gt;O</title>
<path fill="none" stroke="black" d="M212.21,-163.73C221.94,-150.69 234.46,-134.9 247,-121.95 251.44,-117.37 256.32,-112.77 261.27,-108.36"/>
<polygon fill="black" stroke="black" points="263.79,-110.81 269.05,-101.61 259.2,-105.52 263.79,-110.81"/>
</g>
<!-- θ -->
<g id="node5" class="node">
<title>θ</title>
<ellipse fill="none" stroke="black" cx="71" cy="-312.38" rx="41.94" ry="37.45"/>
<text text-anchor="middle" x="71" y="-323.68" font-family="Times,serif" font-size="14.00">θ</text>
<text text-anchor="middle" x="71" y="-308.68" font-family="Times,serif" font-size="14.00">~</text>
<text text-anchor="middle" x="71" y="-293.68" font-family="Times,serif" font-size="14.00">Normal</text>
</g>
<!-- β -->
<g id="node6" class="node">
<title>β</title>
<ellipse fill="none" stroke="black" cx="71" cy="-190.43" rx="55.31" ry="37.45"/>
<text text-anchor="middle" x="71" y="-201.73" font-family="Times,serif" font-size="14.00">β</text>
<text text-anchor="middle" x="71" y="-186.73" font-family="Times,serif" font-size="14.00">~</text>
<text text-anchor="middle" x="71" y="-171.73" font-family="Times,serif" font-size="14.00">MvNormal</text>
</g>
<!-- θ&#45;&gt;β -->
<g id="edge1" class="edge">
<title>θ&#45;&gt;β</title>
<path fill="none" stroke="black" d="M71,-274.74C71,-263.34 71,-250.6 71,-238.58"/>
<polygon fill="black" stroke="black" points="74.5,-238.26 71,-228.26 67.5,-238.26 74.5,-238.26"/>
</g>
<!-- β&#45;&gt;O -->
<g id="edge8" class="edge">
<title>β&#45;&gt;O</title>
<path fill="none" stroke="black" d="M96.53,-157.21C108.01,-144.61 122.46,-131.03 138,-121.95 172.12,-102.03 215.5,-90.74 248.78,-84.52"/>
<polygon fill="black" stroke="black" points="249.53,-87.94 258.77,-82.75 248.31,-81.05 249.53,-87.94"/>
</g>
<!-- ρ² -->
<g id="node7" class="node">
<title>ρ²</title>
<ellipse fill="none" stroke="black" cx="366" cy="-312.38" rx="41.94" ry="37.45"/>
<text text-anchor="middle" x="366" y="-323.68" font-family="Times,serif" font-size="14.00">ρ²</text>
<text text-anchor="middle" x="366" y="-308.68" font-family="Times,serif" font-size="14.00">~</text>
<text text-anchor="middle" x="366" y="-293.68" font-family="Times,serif" font-size="14.00">Normal</text>
</g>
<!-- ρ²&#45;&gt;γ -->
<g id="edge2" class="edge">
<title>ρ²&#45;&gt;γ</title>
<path fill="none" stroke="black" d="M380.61,-277.01C386.01,-264.31 392.22,-249.72 397.95,-236.23"/>
<polygon fill="black" stroke="black" points="401.34,-237.21 402.03,-226.64 394.9,-234.48 401.34,-237.21"/>
</g>
<!-- σ -->
<g id="node8" class="node">
<title>σ</title>
<ellipse fill="none" stroke="black" cx="548" cy="-190.43" rx="57.97" ry="37.45"/>
<text text-anchor="middle" x="548" y="-201.73" font-family="Times,serif" font-size="14.00">σ</text>
<text text-anchor="middle" x="548" y="-186.73" font-family="Times,serif" font-size="14.00">~</text>
<text text-anchor="middle" x="548" y="-171.73" font-family="Times,serif" font-size="14.00">Exponential</text>
</g>
<!-- σ&#45;&gt;O -->
<g id="edge6" class="edge">
<title>σ&#45;&gt;O</title>
<path fill="none" stroke="black" d="M523.39,-156.26C512.59,-143.81 498.95,-130.6 484,-121.95 443.13,-98.31 390.19,-87.2 351.59,-81.99"/>
<polygon fill="black" stroke="black" points="351.96,-78.51 341.61,-80.74 351.09,-85.46 351.96,-78.51"/>
</g>
<!-- η² -->
<g id="node9" class="node">
<title>η²</title>
<ellipse fill="none" stroke="black" cx="467" cy="-312.38" rx="41.94" ry="37.45"/>
<text text-anchor="middle" x="467" y="-323.68" font-family="Times,serif" font-size="14.00">η²</text>
<text text-anchor="middle" x="467" y="-308.68" font-family="Times,serif" font-size="14.00">~</text>
<text text-anchor="middle" x="467" y="-293.68" font-family="Times,serif" font-size="14.00">Normal</text>
</g>
<!-- η²&#45;&gt;γ -->
<g id="edge3" class="edge">
<title>η²&#45;&gt;γ</title>
<path fill="none" stroke="black" d="M452.67,-277.01C447.38,-264.31 441.3,-249.72 435.67,-236.23"/>
<polygon fill="black" stroke="black" points="438.76,-234.53 431.68,-226.64 432.29,-237.22 438.76,-234.53"/>
</g>
</g>
</svg>
