<?xml version="1.0" encoding="UTF-8" standalone="no"?>
<!DOCTYPE svg PUBLIC "-//W3C//DTD SVG 1.1//EN"
 "http://www.w3.org/Graphics/SVG/1.1/DTD/svg11.dtd">
<!-- Generated by graphviz version 6.0.1 (20220911.2005)
 -->
<!-- Pages: 1 -->
<svg width="616pt" height="374pt"
 viewBox="0.00 0.00 615.69 373.86" xmlns="http://www.w3.org/2000/svg" xmlns:xlink="http://www.w3.org/1999/xlink">
<g id="graph0" class="graph" transform="scale(1 1) rotate(0) translate(4 369.86)">
<polygon fill="white" stroke="none" points="-4,4 -4,-369.86 611.69,-369.86 611.69,4 -4,4"/>
<g id="clust1" class="cluster">
<title>cluster540</title>
<path fill="none" stroke="black" d="M154,-8C154,-8 468,-8 468,-8 474,-8 480,-14 480,-20 480,-20 480,-223.91 480,-223.91 480,-229.91 474,-235.91 468,-235.91 468,-235.91 154,-235.91 154,-235.91 148,-235.91 142,-229.91 142,-223.91 142,-223.91 142,-20 142,-20 142,-14 148,-8 154,-8"/>
<text text-anchor="middle" x="461.5" y="-15.8" font-family="Times,serif" font-size="14.00">540</text>
</g>
<g id="clust2" class="cluster">
<title>cluster3</title>
<path fill="none" stroke="black" d="M33,-243.91C33,-243.91 109,-243.91 109,-243.91 115,-243.91 121,-249.91 121,-255.91 121,-255.91 121,-345.86 121,-345.86 121,-351.86 115,-357.86 109,-357.86 109,-357.86 33,-357.86 33,-357.86 27,-357.86 21,-351.86 21,-345.86 21,-345.86 21,-255.91 21,-255.91 21,-249.91 27,-243.91 33,-243.91"/>
<text text-anchor="middle" x="109.5" y="-251.71" font-family="Times,serif" font-size="14.00">3</text>
</g>
<g id="clust3" class="cluster">
<title>cluster4 x 3</title>
<path fill="none" stroke="black" d="M20,-121.95C20,-121.95 122,-121.95 122,-121.95 128,-121.95 134,-127.95 134,-133.95 134,-133.95 134,-223.91 134,-223.91 134,-229.91 128,-235.91 122,-235.91 122,-235.91 20,-235.91 20,-235.91 14,-235.91 8,-229.91 8,-223.91 8,-223.91 8,-133.95 8,-133.95 8,-127.95 14,-121.95 20,-121.95"/>
<text text-anchor="middle" x="112" y="-129.75" font-family="Times,serif" font-size="14.00">4 x 3</text>
</g>
<!-- C -->
<g id="node1" class="node">
<title>C</title>
<path fill="lightgrey" stroke="black" d="M460,-216.93C460,-216.93 396,-216.93 396,-216.93 390,-216.93 384,-210.93 384,-204.93 384,-204.93 384,-175.93 384,-175.93 384,-169.93 390,-163.93 396,-163.93 396,-163.93 460,-163.93 460,-163.93 466,-163.93 472,-169.93 472,-175.93 472,-175.93 472,-204.93 472,-204.93 472,-210.93 466,-216.93 460,-216.93"/>
<text text-anchor="middle" x="428" y="-201.73" font-family="Times,serif" font-size="14.00">C</text>
<text text-anchor="middle" x="428" y="-186.73" font-family="Times,serif" font-size="14.00">~</text>
<text text-anchor="middle" x="428" y="-171.73" font-family="Times,serif" font-size="14.00">MutableData</text>
</g>
<!-- O -->
<g id="node4" class="node">
<title>O</title>
<ellipse fill="lightgrey" stroke="black" cx="322" cy="-76.48" rx="41.94" ry="37.45"/>
<text text-anchor="middle" x="322" y="-87.78" font-family="Times,serif" font-size="14.00">O</text>
<text text-anchor="middle" x="322" y="-72.78" font-family="Times,serif" font-size="14.00">~</text>
<text text-anchor="middle" x="322" y="-57.78" font-family="Times,serif" font-size="14.00">Normal</text>
</g>
<!-- C&#45;&gt;O -->
<g id="edge5" class="edge">
<title>C&#45;&gt;O</title>
<path fill="none" stroke="black" d="M409.79,-163.73C400.06,-150.69 387.54,-134.9 375,-121.95 370.56,-117.37 365.68,-112.77 360.73,-108.36"/>
<polygon fill="black" stroke="black" points="362.8,-105.52 352.95,-101.61 358.21,-110.81 362.8,-105.52"/>
</g>
<!-- W -->
<g id="node2" class="node">
<title>W</title>
<path fill="lightgrey" stroke="black" d="M354,-216.93C354,-216.93 290,-216.93 290,-216.93 284,-216.93 278,-210.93 278,-204.93 278,-204.93 278,-175.93 278,-175.93 278,-169.93 284,-163.93 290,-163.93 290,-163.93 354,-163.93 354,-163.93 360,-163.93 366,-169.93 366,-175.93 366,-175.93 366,-204.93 366,-204.93 366,-210.93 360,-216.93 354,-216.93"/>
<text text-anchor="middle" x="322" y="-201.73" font-family="Times,serif" font-size="14.00">W</text>
<text text-anchor="middle" x="322" y="-186.73" font-family="Times,serif" font-size="14.00">~</text>
<text text-anchor="middle" x="322" y="-171.73" font-family="Times,serif" font-size="14.00">MutableData</text>
</g>
<!-- W&#45;&gt;O -->
<g id="edge7" class="edge">
<title>W&#45;&gt;O</title>
<path fill="none" stroke="black" d="M322,-163.75C322,-152.02 322,-137.75 322,-124.22"/>
<polygon fill="black" stroke="black" points="325.5,-124.07 322,-114.07 318.5,-124.07 325.5,-124.07"/>
</g>
<!-- γ -->
<g id="node3" class="node">
<title>γ</title>
<ellipse fill="none" stroke="black" cx="205" cy="-190.43" rx="55.31" ry="37.45"/>
<text text-anchor="middle" x="205" y="-201.73" font-family="Times,serif" font-size="14.00">γ</text>
<text text-anchor="middle" x="205" y="-186.73" font-family="Times,serif" font-size="14.00">~</text>
<text text-anchor="middle" x="205" y="-171.73" font-family="Times,serif" font-size="14.00">MvNormal</text>
</g>
<!-- γ&#45;&gt;O -->
<g id="edge4" class="edge">
<title>γ&#45;&gt;O</title>
<path fill="none" stroke="black" d="M233.28,-158.15C244.16,-146.5 256.89,-133.35 269,-121.95 273.65,-117.58 278.65,-113.1 283.66,-108.76"/>
<polygon fill="black" stroke="black" points="286.16,-111.22 291.49,-102.07 281.62,-105.9 286.16,-111.22"/>
</g>
<!-- θ -->
<g id="node5" class="node">
<title>θ</title>
<ellipse fill="none" stroke="black" cx="71" cy="-312.38" rx="41.94" ry="37.45"/>
<text text-anchor="middle" x="71" y="-323.68" font-family="Times,serif" font-size="14.00">θ</text>
<text text-anchor="middle" x="71" y="-308.68" font-family="Times,serif" font-size="14.00">~</text>
<text text-anchor="middle" x="71" y="-293.68" font-family="Times,serif" font-size="14.00">Normal</text>
</g>
<!-- β -->
<g id="node6" class="node">
<title>β</title>
<ellipse fill="none" stroke="black" cx="71" cy="-190.43" rx="55.31" ry="37.45"/>
<text text-anchor="middle" x="71" y="-201.73" font-family="Times,serif" font-size="14.00">β</text>
<text text-anchor="middle" x="71" y="-186.73" font-family="Times,serif" font-size="14.00">~</text>
<text text-anchor="middle" x="71" y="-171.73" font-family="Times,serif" font-size="14.00">MvNormal</text>
</g>
<!-- θ&#45;&gt;β -->
<g id="edge1" class="edge">
<title>θ&#45;&gt;β</title>
<path fill="none" stroke="black" d="M71,-274.74C71,-263.34 71,-250.6 71,-238.58"/>
<polygon fill="black" stroke="black" points="74.5,-238.26 71,-228.26 67.5,-238.26 74.5,-238.26"/>
</g>
<!-- β&#45;&gt;O -->
<g id="edge6" class="edge">
<title>β&#45;&gt;O</title>
<path fill="none" stroke="black" d="M96.4,-156.97C107.85,-144.33 122.32,-130.79 138,-121.95 179.13,-98.78 232.05,-87.61 270.56,-82.27"/>
<polygon fill="black" stroke="black" points="271.06,-85.73 280.53,-80.97 270.16,-78.79 271.06,-85.73"/>
</g>
<!-- η² -->
<g id="node7" class="node">
<title>η²</title>
<ellipse fill="none" stroke="black" cx="188" cy="-312.38" rx="41.94" ry="37.45"/>
<text text-anchor="middle" x="188" y="-323.68" font-family="Times,serif" font-size="14.00">η²</text>
<text text-anchor="middle" x="188" y="-308.68" font-family="Times,serif" font-size="14.00">~</text>
<text text-anchor="middle" x="188" y="-293.68" font-family="Times,serif" font-size="14.00">Normal</text>
</g>
<!-- η²&#45;&gt;γ -->
<g id="edge2" class="edge">
<title>η²&#45;&gt;γ</title>
<path fill="none" stroke="black" d="M193.15,-275.07C194.8,-263.43 196.65,-250.38 198.38,-238.11"/>
<polygon fill="black" stroke="black" points="201.87,-238.43 199.81,-228.04 194.94,-237.45 201.87,-238.43"/>
</g>
<!-- ρ² -->
<g id="node8" class="node">
<title>ρ²</title>
<ellipse fill="none" stroke="black" cx="289" cy="-312.38" rx="41.94" ry="37.45"/>
<text text-anchor="middle" x="289" y="-323.68" font-family="Times,serif" font-size="14.00">ρ²</text>
<text text-anchor="middle" x="289" y="-308.68" font-family="Times,serif" font-size="14.00">~</text>
<text text-anchor="middle" x="289" y="-293.68" font-family="Times,serif" font-size="14.00">Normal</text>
</g>
<!-- ρ²&#45;&gt;γ -->
<g id="edge3" class="edge">
<title>ρ²&#45;&gt;γ</title>
<path fill="none" stroke="black" d="M267.15,-280.18C257.06,-265.77 244.94,-248.46 234.09,-232.97"/>
<polygon fill="black" stroke="black" points="236.81,-230.76 228.21,-224.58 231.08,-234.78 236.81,-230.76"/>
</g>
<!-- σ -->
<g id="node9" class="node">
<title>σ</title>
<ellipse fill="none" stroke="black" cx="549" cy="-190.43" rx="58.88" ry="37.45"/>
<text text-anchor="middle" x="549" y="-201.73" font-family="Times,serif" font-size="14.00">σ</text>
<text text-anchor="middle" x="549" y="-186.73" font-family="Times,serif" font-size="14.00">~</text>
<text text-anchor="middle" x="549" y="-171.73" font-family="Times,serif" font-size="14.00">HalfNormal</text>
</g>
<!-- σ&#45;&gt;O -->
<g id="edge8" class="edge">
<title>σ&#45;&gt;O</title>
<path fill="none" stroke="black" d="M523.78,-156.5C512.77,-144.09 498.96,-130.84 484,-121.95 450.03,-101.77 406.64,-90.49 373.32,-84.35"/>
<polygon fill="black" stroke="black" points="373.77,-80.88 363.32,-82.6 372.57,-87.77 373.77,-80.88"/>
</g>
</g>
</svg>
