<?xml version="1.0" encoding="UTF-8" standalone="no"?>
<!DOCTYPE svg PUBLIC "-//W3C//DTD SVG 1.1//EN"
 "http://www.w3.org/Graphics/SVG/1.1/DTD/svg11.dtd">
<!-- Generated by graphviz version 6.0.1 (20220911.2005)
 -->
<!-- Pages: 1 -->
<svg width="510pt" height="374pt"
 viewBox="0.00 0.00 509.69 373.86" xmlns="http://www.w3.org/2000/svg" xmlns:xlink="http://www.w3.org/1999/xlink">
<g id="graph0" class="graph" transform="scale(1 1) rotate(0) translate(4 369.86)">
<polygon fill="white" stroke="none" points="-4,4 -4,-369.86 505.69,-369.86 505.69,4 -4,4"/>
<g id="clust1" class="cluster">
<title>cluster646</title>
<path fill="none" stroke="black" d="M154,-8C154,-8 362,-8 362,-8 368,-8 374,-14 374,-20 374,-20 374,-223.91 374,-223.91 374,-229.91 368,-235.91 362,-235.91 362,-235.91 154,-235.91 154,-235.91 148,-235.91 142,-229.91 142,-223.91 142,-223.91 142,-20 142,-20 142,-14 148,-8 154,-8"/>
<text text-anchor="middle" x="355.5" y="-15.8" font-family="Times,serif" font-size="14.00">646</text>
</g>
<g id="clust2" class="cluster">
<title>cluster2</title>
<path fill="none" stroke="black" d="M33,-243.91C33,-243.91 109,-243.91 109,-243.91 115,-243.91 121,-249.91 121,-255.91 121,-255.91 121,-345.86 121,-345.86 121,-351.86 115,-357.86 109,-357.86 109,-357.86 33,-357.86 33,-357.86 27,-357.86 21,-351.86 21,-345.86 21,-345.86 21,-255.91 21,-255.91 21,-249.91 27,-243.91 33,-243.91"/>
<text text-anchor="middle" x="109.5" y="-251.71" font-family="Times,serif" font-size="14.00">2</text>
</g>
<g id="clust3" class="cluster">
<title>cluster12 x 2</title>
<path fill="none" stroke="black" d="M20,-121.95C20,-121.95 122,-121.95 122,-121.95 128,-121.95 134,-127.95 134,-133.95 134,-133.95 134,-223.91 134,-223.91 134,-229.91 128,-235.91 122,-235.91 122,-235.91 20,-235.91 20,-235.91 14,-235.91 8,-229.91 8,-223.91 8,-223.91 8,-133.95 8,-133.95 8,-127.95 14,-121.95 20,-121.95"/>
<text text-anchor="middle" x="108.5" y="-129.75" font-family="Times,serif" font-size="14.00">12 x 2</text>
</g>
<!-- γ -->
<g id="node1" class="node">
<title>γ</title>
<ellipse fill="none" stroke="black" cx="311" cy="-190.43" rx="55.31" ry="37.45"/>
<text text-anchor="middle" x="311" y="-201.73" font-family="Times,serif" font-size="14.00">γ</text>
<text text-anchor="middle" x="311" y="-186.73" font-family="Times,serif" font-size="14.00">~</text>
<text text-anchor="middle" x="311" y="-171.73" font-family="Times,serif" font-size="14.00">MvNormal</text>
</g>
<!-- O -->
<g id="node3" class="node">
<title>O</title>
<ellipse fill="lightgrey" stroke="black" cx="252" cy="-76.48" rx="41.94" ry="37.45"/>
<text text-anchor="middle" x="252" y="-87.78" font-family="Times,serif" font-size="14.00">O</text>
<text text-anchor="middle" x="252" y="-72.78" font-family="Times,serif" font-size="14.00">~</text>
<text text-anchor="middle" x="252" y="-57.78" font-family="Times,serif" font-size="14.00">Normal</text>
</g>
<!-- γ&#45;&gt;O -->
<g id="edge4" class="edge">
<title>γ&#45;&gt;O</title>
<path fill="none" stroke="black" d="M292.82,-154.93C286.99,-143.88 280.47,-131.51 274.39,-119.96"/>
<polygon fill="black" stroke="black" points="277.38,-118.12 269.62,-110.91 271.18,-121.38 277.38,-118.12"/>
</g>
<!-- W -->
<g id="node2" class="node">
<title>W</title>
<path fill="lightgrey" stroke="black" d="M226,-216.93C226,-216.93 162,-216.93 162,-216.93 156,-216.93 150,-210.93 150,-204.93 150,-204.93 150,-175.93 150,-175.93 150,-169.93 156,-163.93 162,-163.93 162,-163.93 226,-163.93 226,-163.93 232,-163.93 238,-169.93 238,-175.93 238,-175.93 238,-204.93 238,-204.93 238,-210.93 232,-216.93 226,-216.93"/>
<text text-anchor="middle" x="194" y="-201.73" font-family="Times,serif" font-size="14.00">W</text>
<text text-anchor="middle" x="194" y="-186.73" font-family="Times,serif" font-size="14.00">~</text>
<text text-anchor="middle" x="194" y="-171.73" font-family="Times,serif" font-size="14.00">MutableData</text>
</g>
<!-- W&#45;&gt;O -->
<g id="edge5" class="edge">
<title>W&#45;&gt;O</title>
<path fill="none" stroke="black" d="M207.31,-163.75C214.06,-150.7 222.45,-134.52 230.12,-119.7"/>
<polygon fill="black" stroke="black" points="233.3,-121.18 234.79,-110.69 227.08,-117.96 233.3,-121.18"/>
</g>
<!-- θ -->
<g id="node4" class="node">
<title>θ</title>
<ellipse fill="none" stroke="black" cx="71" cy="-312.38" rx="41.94" ry="37.45"/>
<text text-anchor="middle" x="71" y="-323.68" font-family="Times,serif" font-size="14.00">θ</text>
<text text-anchor="middle" x="71" y="-308.68" font-family="Times,serif" font-size="14.00">~</text>
<text text-anchor="middle" x="71" y="-293.68" font-family="Times,serif" font-size="14.00">Normal</text>
</g>
<!-- β -->
<g id="node5" class="node">
<title>β</title>
<ellipse fill="none" stroke="black" cx="71" cy="-190.43" rx="55.31" ry="37.45"/>
<text text-anchor="middle" x="71" y="-201.73" font-family="Times,serif" font-size="14.00">β</text>
<text text-anchor="middle" x="71" y="-186.73" font-family="Times,serif" font-size="14.00">~</text>
<text text-anchor="middle" x="71" y="-171.73" font-family="Times,serif" font-size="14.00">MvNormal</text>
</g>
<!-- θ&#45;&gt;β -->
<g id="edge1" class="edge">
<title>θ&#45;&gt;β</title>
<path fill="none" stroke="black" d="M71,-274.74C71,-263.34 71,-250.6 71,-238.58"/>
<polygon fill="black" stroke="black" points="74.5,-238.26 71,-228.26 67.5,-238.26 74.5,-238.26"/>
</g>
<!-- β&#45;&gt;O -->
<g id="edge6" class="edge">
<title>β&#45;&gt;O</title>
<path fill="none" stroke="black" d="M97.66,-157.31C109.1,-145.02 123.23,-131.64 138,-121.95 157.71,-109.03 181.74,-98.95 202.65,-91.69"/>
<polygon fill="black" stroke="black" points="203.95,-94.94 212.32,-88.44 201.73,-88.3 203.95,-94.94"/>
</g>
<!-- ρ² -->
<g id="node6" class="node">
<title>ρ²</title>
<ellipse fill="none" stroke="black" cx="250" cy="-312.38" rx="57.97" ry="37.45"/>
<text text-anchor="middle" x="250" y="-323.68" font-family="Times,serif" font-size="14.00">ρ²</text>
<text text-anchor="middle" x="250" y="-308.68" font-family="Times,serif" font-size="14.00">~</text>
<text text-anchor="middle" x="250" y="-293.68" font-family="Times,serif" font-size="14.00">Exponential</text>
</g>
<!-- ρ²&#45;&gt;γ -->
<g id="edge2" class="edge">
<title>ρ²&#45;&gt;γ</title>
<path fill="none" stroke="black" d="M267.81,-276.37C274.32,-263.55 281.78,-248.9 288.64,-235.4"/>
<polygon fill="black" stroke="black" points="291.86,-236.78 293.28,-226.28 285.62,-233.61 291.86,-236.78"/>
</g>
<!-- η² -->
<g id="node7" class="node">
<title>η²</title>
<ellipse fill="none" stroke="black" cx="384" cy="-312.38" rx="57.97" ry="37.45"/>
<text text-anchor="middle" x="384" y="-323.68" font-family="Times,serif" font-size="14.00">η²</text>
<text text-anchor="middle" x="384" y="-308.68" font-family="Times,serif" font-size="14.00">~</text>
<text text-anchor="middle" x="384" y="-293.68" font-family="Times,serif" font-size="14.00">Exponential</text>
</g>
<!-- η²&#45;&gt;γ -->
<g id="edge3" class="edge">
<title>η²&#45;&gt;γ</title>
<path fill="none" stroke="black" d="M363.28,-277.33C355.11,-263.91 345.63,-248.34 337.01,-234.18"/>
<polygon fill="black" stroke="black" points="339.96,-232.29 331.78,-225.57 333.98,-235.93 339.96,-232.29"/>
</g>
<!-- σ -->
<g id="node8" class="node">
<title>σ</title>
<ellipse fill="none" stroke="black" cx="443" cy="-190.43" rx="58.88" ry="37.45"/>
<text text-anchor="middle" x="443" y="-201.73" font-family="Times,serif" font-size="14.00">σ</text>
<text text-anchor="middle" x="443" y="-186.73" font-family="Times,serif" font-size="14.00">~</text>
<text text-anchor="middle" x="443" y="-171.73" font-family="Times,serif" font-size="14.00">HalfNormal</text>
</g>
<!-- σ&#45;&gt;O -->
<g id="edge7" class="edge">
<title>σ&#45;&gt;O</title>
<path fill="none" stroke="black" d="M417.14,-156.69C406.14,-144.45 392.5,-131.28 378,-121.95 354.94,-107.12 326.31,-96.5 302.17,-89.37"/>
<polygon fill="black" stroke="black" points="303.05,-85.98 292.47,-86.61 301.14,-92.71 303.05,-85.98"/>
</g>
</g>
</svg>
